<?xml version="1.0"?>
<svg xmlns="http://www.w3.org/2000/svg" height="512px" viewBox="0 0 512 512" width="512px"><path d="m273.066406 51.199219h-34.132812c-4.710938 0-8.535156-3.8125-8.535156-8.53125v-34.132813c0-4.722656 3.824218-8.535156 8.535156-8.535156h34.132812c4.710938 0 8.535156 3.8125 8.535156 8.535156v34.132813c0 4.71875-3.824218 8.53125-8.535156 8.53125zm-25.601562-17.066407h17.070312v-17.066406h-17.070312zm0 0" fill="#ff7759"/><path d="m384 162.132812h-34.132812c-4.710938 0-8.535157-3.8125-8.535157-8.53125v-34.136718c0-4.71875 3.824219-8.53125 8.535157-8.53125h34.132812c4.710938 0 8.535156 3.8125 8.535156 8.53125v34.136718c0 4.71875-3.824218 8.53125-8.535156 8.53125zm-25.601562-17.066406h17.066406v-17.066406h-17.066406zm0 0" fill="#ff7759"/><path d="m162.132812 162.132812h-34.132812c-4.710938 0-8.535156-3.8125-8.535156-8.53125v-34.136718c0-4.71875 3.824218-8.53125 8.535156-8.53125h34.132812c4.710938 0 8.535157 3.8125 8.535157 8.53125v34.136718c0 4.71875-3.824219 8.53125-8.535157 8.53125zm-25.597656-17.066406h17.066406v-17.066406h-17.066406zm0 0" fill="#ff7759"/><path d="m392.535156 392.535156h-34.136718c-4.707032 0-8.53125-3.816406-8.53125-8.535156v-34.132812c0-4.71875 3.824218-8.535157 8.53125-8.535157h34.136718c4.707032 0 8.53125 3.816407 8.53125 8.535157v34.132812c0 4.71875-3.824218 8.535156-8.53125 8.535156zm-25.601562-17.070312h17.066406v-17.066406h-17.066406zm0 0" fill="#ff7759"/><path d="m162.132812 401.066406h-34.132812c-4.710938 0-8.535156-3.8125-8.535156-8.53125v-34.136718c0-4.71875 3.824218-8.53125 8.535156-8.53125h34.132812c4.710938 0 8.535157 3.8125 8.535157 8.53125v34.136718c0 4.71875-3.824219 8.53125-8.535157 8.53125zm-25.597656-17.066406h17.066406v-17.066406h-17.066406zm0 0" fill="#ff7759"/><path d="m503.464844 281.601562h-34.132813c-4.710937 0-8.53125-3.816406-8.53125-8.535156v-34.132812c0-4.71875 3.820313-8.535156 8.53125-8.535156h34.132813c4.710937 0 8.535156 3.816406 8.535156 8.535156v34.132812c0 4.71875-3.824219 8.535156-8.535156 8.535156zm-25.597656-17.066406h17.066406v-17.070312h-17.066406zm0 0" fill="#ff7759"/><path d="m42.667969 281.601562h-34.132813c-4.710937 0-8.535156-3.816406-8.535156-8.535156v-34.132812c0-4.71875 3.824219-8.535156 8.535156-8.535156h34.132813c4.710937 0 8.53125 3.816406 8.53125 8.535156v34.132812c0 4.71875-3.820313 8.535156-8.53125 8.535156zm-25.601563-17.066406h17.066406v-17.070312h-17.066406zm0 0" fill="#ff7759"/><path d="m273.066406 512h-34.132812c-4.710938 0-8.535156-3.8125-8.535156-8.535156v-34.132813c0-4.71875 3.824218-8.53125 8.535156-8.53125h34.132812c4.710938 0 8.535156 3.8125 8.535156 8.53125v34.132813c0 4.722656-3.824218 8.535156-8.535156 8.535156zm-25.601562-17.066406h17.070312v-17.066406h-17.070312zm0 0" fill="#ff7759"/><path d="m273.066406 477.867188h-34.132812c-2.261719 0-4.4375-.898438-6.035156-2.5l-76.796876-76.800782c-1.605468-1.605468-2.5-3.761718-2.5-6.03125v-25.601562h-25.601562c-2.261719 0-4.4375-.894532-6.03125-2.5l-85.335938-85.332032c-1.601562-1.605468-2.5-3.765624-2.5-6.035156v-34.132812c0-2.269532.898438-4.4375 2.5-6.035156l85.335938-85.332032c1.601562-1.605468 3.769531-2.5 6.03125-2.5h25.601562v-25.601562c0-2.269532.894532-4.433594 2.5-6.03125l76.796876-76.800782c1.605468-1.601562 3.773437-2.5 6.035156-2.5h34.132812c2.261719 0 4.4375.898438 6.035156 2.5l76.796876 76.800782c1.605468 1.605468 2.5 3.761718 2.5 6.03125v25.601562h25.601562c2.261719 0 4.4375.894532 6.03125 2.5l85.335938 85.332032c1.601562 1.605468 2.5 3.765624 2.5 6.035156v34.132812c0 2.269532-.898438 4.4375-2.5 6.035156l-76.800782 76.796876c-1.605468 1.605468-3.773437 2.5-6.03125 2.5h-25.601562v25.601562c0 2.269531-.894532 4.4375-2.5 6.03125l-85.332032 85.335938c-1.605468 1.601562-3.773437 2.5-6.035156 2.5zm-30.601562-17.066407h27.058594l80.335937-80.332031v-30.601562c0-4.71875 3.820313-8.535157 8.53125-8.535157h30.601563l71.800781-71.796875v-27.070312l-80.335938-80.332032h-30.597656c-4.710937 0-8.535156-3.8125-8.535156-8.53125v-30.601562l-71.800781-71.800781h-27.058594l-71.808594 71.800781v30.601562c0 4.71875-3.820312 8.53125-8.53125 8.53125h-30.59375l-80.339844 80.332032v27.070312l80.339844 80.332032h30.59375c4.710938 0 8.53125 3.8125 8.53125 8.53125v30.601562zm0 0" fill="#ff7759"/></svg>
