<?xml version="1.0" encoding="utf-8"?>
<svg xmlns="http://www.w3.org/2000/svg">
  <symbol id="si-glyph-abacus" viewBox="0 0 16 16"><title>642</title><defs class=""/><g stroke="none" stroke-width="1" fill="none" fill-rule="evenodd"><g transform="translate(0.000000, 1.000000)" fill="#434343" class="si-glyph-fill"><path d="M14.194,13.958 L1.765,13.958 C0.316,13.958 0.036,12.808 0.036,11.394 L0.036,2.607 C0.036,1.193 0.315,0.043 1.765,0.043 L14.194,0.043 C15.642,0.043 15.922,1.193 15.922,2.607 L15.922,11.394 C15.922,12.808 15.643,13.958 14.194,13.958 L14.194,13.958 Z M1.923,1 C1.414,1 1,1.426 1,1.948 L1,12.052 C1,12.574 1.414,13 1.923,13 L14.077,13 C14.586,13 15,12.574 15,12.052 L15,1.948 C15,1.426 14.586,1 14.077,1 L1.923,1 L1.923,1 Z" class="si-glyph-fill"/><rect x="3" y="0" width="0.948" height="13.068" class="si-glyph-fill"/><rect x="8" y="0" width="0.948" height="13.068" class="si-glyph-fill"/><rect x="12" y="0" width="0.948" height="13.068" class="si-glyph-fill"/><ellipse cx="3.438" cy="4.976" rx="1.438" ry="0.976" class="si-glyph-fill"/><ellipse cx="3.438" cy="7.976" rx="1.438" ry="0.976" class="si-glyph-fill"/><ellipse cx="3.438" cy="10.976" rx="1.438" ry="0.976" class="si-glyph-fill"/><ellipse cx="8.477" cy="2.976" rx="1.477" ry="0.976" class="si-glyph-fill"/><ellipse cx="8.477" cy="5.976" rx="1.477" ry="0.976" class="si-glyph-fill"/><ellipse cx="8.477" cy="10.976" rx="1.477" ry="0.976" class="si-glyph-fill"/><ellipse cx="12.435" cy="7.977" rx="1.435" ry="0.977" class="si-glyph-fill"/><ellipse cx="12.435" cy="10.977" rx="1.435" ry="0.977" class="si-glyph-fill"/></g></g>
  </symbol>
<symbol id="si-glyph-tic-tac-toe" viewBox="0 0 17 16">
    <!-- Generator: Sketch 3.0.3 (7891) - http://www.bohemiancoding.com/sketch -->
    <title>851</title>

    <defs/>
    <g stroke="none" stroke-width="1" fill="none" fill-rule="evenodd">
        <g transform="translate(1.000000, 0.000000)" fill="#434343">
            <path d="M12.492,9.019 C10.577,9.019 9.023,10.572 9.023,12.489 C9.023,14.405 10.577,15.958 12.492,15.958 C14.409,15.958 15.962,14.405 15.962,12.489 C15.962,10.571 14.409,9.019 12.492,9.019 L12.492,9.019 Z M12.533,15.117 C11.081,15.117 9.904,13.949 9.904,12.508 C9.904,11.068 11.081,9.899 12.533,9.899 C13.986,9.899 15.165,11.068 15.165,12.508 C15.165,13.949 13.986,15.117 12.533,15.117 L12.533,15.117 Z" class="si-glyph-fill"/>
            <path d="M3.512,0.079 C1.62,0.079 0.086,1.614 0.086,3.506 C0.086,5.4 1.62,6.934 3.512,6.934 C5.405,6.934 6.94,5.4 6.94,3.506 C6.939,1.614 5.404,0.079 3.512,0.079 L3.512,0.079 Z M3.512,6.095 C2.084,6.095 0.925,4.935 0.925,3.506 C0.925,2.079 2.084,0.919 3.512,0.919 C4.94,0.919 6.101,2.079 6.101,3.506 C6.101,4.935 4.939,6.095 3.512,6.095 L3.512,6.095 Z" class="si-glyph-fill"/>
            <path d="M7.006,9.97 L6.1,9.063 L3.54,11.624 L0.979,9.063 L0.072,9.97 L2.633,12.531 L0.072,15.09 L0.979,15.996 L3.54,13.438 L6.1,15.996 L7.006,15.09 L4.446,12.531 L7.006,9.97 Z" class="si-glyph-fill"/>
            <path d="M16.057,0.926 L15.145,0.013 L12.568,2.59 L9.992,0.013 L9.081,0.926 L11.657,3.502 L9.081,6.076 L9.992,6.988 L12.568,4.413 L15.145,6.988 L16.057,6.076 L13.481,3.502 L16.057,0.926 Z" class="si-glyph-fill"/>
        </g>
    </g>

</symbol>

</svg>
